<svg xmlns="http://www.w3.org/2000/svg" viewBox="0 0 1028.77 179.26"><g id="Layer_2" data-name="Layer 2"><g id="Layer_2-2" data-name="Layer 2"><path d="M0,3.69A3.69,3.69,0,0,1,3.69,0H30a3.55,3.55,0,0,1,2.59,1.1,3.59,3.59,0,0,1,1.1,2.59V69.56A1.4,1.4,0,0,0,35.08,71h72.3a1.55,1.55,0,0,0,1-.39,1.4,1.4,0,0,0,.43-1V3.69A3.7,3.7,0,0,1,112.49,0h26.27a3.69,3.69,0,0,1,3.69,3.69V172.42a3.7,3.7,0,0,1-3.69,3.73H112.49a3.7,3.7,0,0,1-3.7-3.73V102.71a1.38,1.38,0,0,0-.43-1,1.51,1.51,0,0,0-1-.4H35.08a1.4,1.4,0,0,0-1,.4,1.42,1.42,0,0,0-.43,1v69.71A3.7,3.7,0,0,1,30,176.15H3.69A3.7,3.7,0,0,1,0,172.42V3.69Z"/><path d="M222.07,179.26a67.12,67.12,0,0,1-47.92-19.68,69.13,69.13,0,0,1-14.77-22,70.58,70.58,0,0,1-5.45-28,71.63,71.63,0,0,1,5.45-28A67.94,67.94,0,0,1,195.75,44.7a67.88,67.88,0,0,1,52.59,0,67.75,67.75,0,0,1,36.41,36.92,71.44,71.44,0,0,1,5.43,28,70.4,70.4,0,0,1-5.43,28,69.6,69.6,0,0,1-14.76,22,67.35,67.35,0,0,1-47.92,19.68Zm0-29a33.8,33.8,0,0,0,13.35-2.72,31.07,31.07,0,0,0,11-7.89,38.45,38.45,0,0,0,7.39-12.69,50.55,50.55,0,0,0,2.7-17.12,52.37,52.37,0,0,0-2.7-17.32,39.09,39.09,0,0,0-7.39-13.08,31.47,31.47,0,0,0-11-8.17,32.51,32.51,0,0,0-26.71,0,31.08,31.08,0,0,0-11,8.17,38.92,38.92,0,0,0-7.39,13.08,52.37,52.37,0,0,0-2.71,17.32,50.54,50.54,0,0,0,2.71,17.12,38.28,38.28,0,0,0,7.39,12.69,30.68,30.68,0,0,0,11,7.89,33.88,33.88,0,0,0,13.36,2.72Z"/><path d="M369.78,39.4c9.35,0,17.17,2.08,23.45,6.32a42.66,42.66,0,0,1,14.89,18,44,44,0,0,1,19.33-18.54A54.35,54.35,0,0,1,451.4,39.4c15.2,0,27,5.1,35.35,15.39s12.57,24.55,12.57,42.85v74.78a3.7,3.7,0,0,1-3.73,3.73H470.37a3.7,3.7,0,0,1-3.69-3.73V97.64c0-8.29-1.8-15-5.46-20.31s-9.93-7.89-18.89-7.89q-13,0-19.44,7.89c-4.32,5.27-6.48,12-6.48,20.31v74.78a3.7,3.7,0,0,1-3.69,3.73H387.5a3.73,3.73,0,0,1-3.73-3.73V97.64c0-8.29-1.81-15-5.42-20.31s-9.94-7.89-18.93-7.89c-8.6,0-15.09,2.64-19.4,7.89s-6.49,12-6.49,20.31v74.78a3.7,3.7,0,0,1-3.69,3.73H304.59a3.7,3.7,0,0,1-3.69-3.73v-126a3.72,3.72,0,0,1,3.69-3.73h24.19a3.76,3.76,0,0,1,3.74,3.73V63.75A35.42,35.42,0,0,1,347.4,45.6a42.11,42.11,0,0,1,22.38-6.2Z"/><path d="M544.84,120a1.36,1.36,0,0,0-1.1.51,1.52,1.52,0,0,0-.31,1.14C545.16,131,549,138,555.09,142.73c6.41,5,14.49,7.51,24.36,7.51q18.38,0,26-11.79a1.46,1.46,0,0,1,1.18-.63h32.29a1.38,1.38,0,0,1,1.33,1.85q-6.12,18.84-21.56,29-16.2,10.59-39.23,10.6A71.68,71.68,0,0,1,552,174.07a68.52,68.52,0,0,1-22.27-14.49,67.15,67.15,0,0,1-15-22,70.39,70.39,0,0,1-5.42-28,72.84,72.84,0,0,1,5.3-28,69.32,69.32,0,0,1,14.38-22.31A65.26,65.26,0,0,1,550.42,44.7a69.46,69.46,0,0,1,55.3.9,64.77,64.77,0,0,1,22.15,17,68.75,68.75,0,0,1,13.35,25.5,81.52,81.52,0,0,1,2.6,30.59,1.45,1.45,0,0,1-1.42,1.3Zm32-52.07a31.68,31.68,0,0,0-20.74,7.49c-5.65,4.67-9.54,11.19-11.74,19.48a1.35,1.35,0,0,0,.28,1.22,1.29,1.29,0,0,0,1.1.55h62a1.44,1.44,0,0,0,1.1-.51,1.33,1.33,0,0,0,.28-1.18c-1.85-8.52-5.46-15-10.8-19.68q-8.55-7.36-21.49-7.37Z"/><path d="M655.36,3.69a3.56,3.56,0,0,1,1.11-2.59A3.54,3.54,0,0,1,659.06,0h32.28a3.71,3.71,0,0,1,3.18,1.85c9.07,15.43,72.74,123.52,72.74,123.52V3.69a3.59,3.59,0,0,1,1.1-2.59A3.72,3.72,0,0,1,771,0h23.64a3.72,3.72,0,0,1,3.73,3.69V172.42a3.73,3.73,0,0,1-3.73,3.73h-32a3.74,3.74,0,0,1-3.22-1.84c-9.11-15.4-73-123.52-73-123.52V172.42a3.74,3.74,0,0,1-3.73,3.73H659.06a3.7,3.7,0,0,1-3.7-3.73V3.69Z"/><path d="M848.84,120a1.36,1.36,0,0,0-1.1.51,1.5,1.5,0,0,0-.27,1.14C849.19,131,853,138,859.09,142.73c6.4,5,14.5,7.51,24.35,7.51q18.39,0,26-11.79a1.47,1.47,0,0,1,1.22-.63h32.25a1.5,1.5,0,0,1,1.18.55,1.71,1.71,0,0,1,.19,1.3q-6.18,18.84-21.6,29-16.2,10.59-39.24,10.6A71.7,71.7,0,0,1,856,174.07a69,69,0,0,1-22.27-14.49,67.77,67.77,0,0,1-15-22,70.4,70.4,0,0,1-5.43-28,72.85,72.85,0,0,1,5.31-28,69.29,69.29,0,0,1,14.37-22.31A65.41,65.41,0,0,1,854.42,44.7a69.46,69.46,0,0,1,55.3.9,64.39,64.39,0,0,1,22.15,17,68.75,68.75,0,0,1,13.35,25.5,81.73,81.73,0,0,1,2.6,30.59,1.41,1.41,0,0,1-1.41,1.3Zm32-52.07a31.68,31.68,0,0,0-20.74,7.49c-5.61,4.67-9.54,11.19-11.74,19.48a1.51,1.51,0,0,0,.27,1.22,1.37,1.37,0,0,0,1.11.55h62a1.44,1.44,0,0,0,1.1-.51,1.53,1.53,0,0,0,.32-1.18c-1.89-8.52-5.46-15-10.81-19.68-5.73-4.91-12.88-7.37-21.52-7.37Z"/><path d="M1015.57,178.24c-16.22,0-28.63-4.52-37.16-13.47s-12.84-22.47-12.84-40.43V71.6a1.4,1.4,0,0,0-1.41-1.41H951.94a3.72,3.72,0,0,1-3.73-3.7v-20a3.76,3.76,0,0,1,3.73-3.73h12.22a1.38,1.38,0,0,0,1-.39,1.36,1.36,0,0,0,.39-1V8.88a3.72,3.72,0,0,1,3.73-3.69h25.22a3.69,3.69,0,0,1,3.69,3.69V41.32a1.44,1.44,0,0,0,.43,1,1.36,1.36,0,0,0,1,.39h23.91a3.55,3.55,0,0,1,2.59,1.11,3.7,3.7,0,0,1,1.11,2.62v20a3.72,3.72,0,0,1-3.7,3.7H999.63a1.4,1.4,0,0,0-1,.43,1.44,1.44,0,0,0-.43,1v53q0,13,5.18,18.94c3.46,4,8.72,6,15.79,6,1.57,0,3.18-.12,4.79-.28.24,0,.48,0,.67-.08a3.67,3.67,0,0,1,4.13,3.69v20.71a3.7,3.7,0,0,1-3.11,3.69l-3.22.47a46.29,46.29,0,0,1-6.87.55Z"/></g></g></svg>